<?xml version="1.0" encoding="UTF-8"?><svg id="Calque_2" xmlns="http://www.w3.org/2000/svg" width="482.53mm" height="282.6mm" viewBox="0 0 1367.79 801.06"><g id="Calque_1-2"><path d="M157.58,409.59c-1.27,2.47-1.99,4.94-3.53,6.71-5.68,6.51-11.53,12.87-17.49,19.11-3.8,3.98-9.31,4.17-13.42.5-6.45-5.75-12.82-11.6-19.01-17.61-4.54-4.41-4.7-8.88-.54-13.63,5.69-6.48,11.55-12.83,17.5-19.09,3.83-4.03,9.15-4.32,13.42-.57,6.6,5.82,13.06,11.81,19.34,17.98,1.65,1.62,2.4,4.15,3.74,6.6" fill="#aa1878"/><path d="M142.4,503.25c-2.97-1.65-5.51-2.55-7.4-4.19-6.03-5.25-11.89-10.69-17.67-16.21-5.24-4.99-5.36-10.1-.58-15.29,5.41-5.88,10.76-11.82,16.31-17.57,4.72-4.9,9.95-4.94,14.9-.39,5.88,5.41,11.8,10.77,17.58,16.29,4.99,4.76,5.13,9.91.6,14.88-5.15,5.66-10.21,11.43-15.6,16.85-2.2,2.21-5.19,3.64-8.13,5.63" fill="#aa1878"/><path d="M195.58,529.88c-1.56,2.76-2.55,5.44-4.3,7.46-5.12,5.91-10.5,11.59-15.86,17.29-5.18,5.51-9.9,5.67-15.59.53-5.93-5.36-11.81-10.77-17.63-16.25-4.19-3.94-4.68-9.67-.95-13.86,5.76-6.46,11.65-12.81,17.7-19.01,4.28-4.39,9.17-4.52,13.72-.48,6.36,5.63,12.64,11.35,18.7,17.29,1.77,1.73,2.66,4.36,4.22,7.04" fill="#aa1878"/><path d="M232.58,580.73c-1.39,2.55-2.21,4.98-3.77,6.77-5.48,6.26-11.15,12.37-16.88,18.41-4.28,4.51-9.57,4.83-14.22.71-6.35-5.63-12.57-11.41-18.68-17.3-4.33-4.17-4.49-9.28-.49-13.75,5.55-6.2,11.18-12.33,16.93-18.35,4.74-4.96,9.39-5.21,14.45-.73,6.36,5.63,12.66,11.34,18.7,17.3,1.76,1.74,2.57,4.44,3.96,6.95" fill="#aa1878"/><path d="M134.58,315.39c2.77,1.59,5.43,2.6,7.46,4.36,5.91,5.12,11.6,10.49,17.3,15.85,5.11,4.8,5.42,9.49.74,14.8-5.5,6.24-11.17,12.34-16.91,18.35-4.17,4.37-9.27,4.64-13.77.66-6.48-5.74-12.86-11.6-19.08-17.62-4.16-4.02-4.33-9-.47-13.38,5.72-6.49,11.56-12.9,17.63-19.06,1.72-1.74,4.43-2.51,7.1-3.95" fill="#aa1878"/><path d="M215.79,233.81c-1.44,2.65-2.2,4.93-3.66,6.59-4.83,5.48-9.82,10.84-14.93,16.06-4.49,4.59-8.68,4.62-13.5.31-5.32-4.77-10.62-9.57-15.78-14.51-4.67-4.47-4.78-8.66-.44-13.5,4.77-5.33,9.62-10.59,14.54-15.77,4.38-4.6,8.84-4.78,13.49-.61,5.32,4.77,10.68,9.5,15.76,14.52,1.88,1.87,3,4.51,4.54,6.9" fill="#aa1878"/><path d="M370.02,642.3c2.56,1.33,4.88,2.04,6.55,3.5,5.51,4.81,10.87,9.8,16.11,14.9,4.93,4.8,4.95,8.62.26,13.84-4.67,5.19-9.38,10.34-14.18,15.41-4.42,4.67-9.17,4.77-13.97.38-5.15-4.71-10.27-9.45-15.35-14.24-4.93-4.64-5.08-8.7-.51-13.79,4.67-5.19,9.27-10.45,14.17-15.41,1.88-1.9,4.52-3.04,6.91-4.59" fill="#aa1878"/><path d="M250.17,596.41c2.47,1.35,4.88,2.18,6.66,3.73,5.39,4.69,10.59,9.6,15.77,14.52,4.73,4.5,5,8.59.72,13.45-4.83,5.48-9.8,10.85-14.89,16.1-4.35,4.48-8.59,4.65-13.1.62-5.58-4.99-11.1-10.04-16.43-15.28-4.23-4.16-4.34-8.42-.48-12.76,4.97-5.59,10.01-11.12,15.27-16.43,1.64-1.66,4.08-2.53,6.47-3.94" fill="#aa1878"/><path d="M333.95,650.16c-1.14,2.22-1.72,4.23-2.98,5.65-5.17,5.85-10.43,11.64-15.89,17.22-4.29,4.38-8.52,4.26-13.14.05-5.16-4.7-10.3-9.43-15.41-14.2-5.01-4.67-5.16-9.2-.48-14.32,4.71-5.16,9.45-10.3,14.23-15.39,4.27-4.55,8.48-4.91,13.09-.85,5.74,5.06,11.38,10.23,16.82,15.6,1.66,1.64,2.51,4.1,3.77,6.24" fill="#aa1878"/><path d="M154.83,259.97c2.47,1.31,4.74,2.03,6.38,3.47,5.51,4.82,10.86,9.82,16.14,14.9,4.38,4.21,4.6,8.66.6,13.18-4.97,5.6-10.06,11.1-15.27,16.48-3.8,3.92-8.78,3.98-12.92.26-5.44-4.9-10.81-9.87-16.09-14.93-4.3-4.12-4.55-8.71-.56-13.22,4.96-5.6,10.06-11.09,15.34-16.38,1.62-1.62,4.07-2.43,6.37-3.75" fill="#aa1878"/><path d="M255.69,184.31c-1.46,2.48-2.35,4.65-3.81,6.34-4.02,4.64-8.21,9.13-12.45,13.57-4.51,4.72-8.12,4.97-12.97.72-4.87-4.26-9.6-8.67-14.26-13.16-3.82-3.68-4.03-7.97-.54-11.92,4.39-4.98,8.89-9.88,13.52-14.62,4.13-4.22,7.87-4.29,12.22-.39,4.7,4.21,9.41,8.43,13.87,12.89,1.77,1.77,2.87,4.21,4.42,6.58" fill="#aa1878"/><path d="M435.6,643.25c2.09,1.13,4.32,1.9,5.98,3.33,4.9,4.22,9.63,8.65,14.33,13.1,3.74,3.54,4.09,8.2.73,11.97-4.52,5.07-9.19,10.03-13.95,14.89-3.66,3.73-7.65,3.96-11.47.58-5.21-4.62-10.25-9.44-15.29-14.25-3.43-3.28-3.74-7.11-.68-10.65,4.88-5.65,10-11.1,15.22-16.44,1.16-1.19,3.13-1.58,5.13-2.54" fill="#aa1878"/><path d="M305.43,146.98c-.02,4.66-13.88,20.05-17.7,20.01-1.96-.02-4.22-1.03-5.78-2.29-4-3.25-7.74-6.82-11.45-10.4-3.39-3.28-3.52-7.07-.4-10.57,3.54-3.97,7.21-7.83,10.87-11.7,2.85-3.01,6.19-3.45,9.32-.77,4.67,4,9.12,8.27,13.51,12.58.98.96,1.33,2.56,1.63,3.15" fill="#aa1878"/><path d="M495.42,631.82c5.11.04,20.29,13.84,20.31,17.71,0,1.68-.66,3.72-1.74,4.99-3.65,4.32-7.53,8.46-11.48,12.51-3.05,3.13-6.41,3.24-9.71.24-4.07-3.7-8.18-7.35-12.15-11.15-3.14-3.01-3.38-6.38-.4-9.7,3.67-4.09,7.32-8.21,11.18-12.11,1.3-1.32,3.23-2.03,3.99-2.49" fill="#aa1878"/><path d="M349.42,118.04c1.04.55,2.34.97,3.29,1.8,3.01,2.61,5.93,5.33,8.81,8.09,2.63,2.52,2.6,5.24.19,7.9-2.56,2.83-5.16,5.64-7.8,8.41-2.5,2.63-5.25,2.71-7.93.35-2.99-2.64-6.18-5.16-8.63-8.25-1.16-1.47-1.85-4.87-.96-6.12,2.86-4.02,6.51-7.49,9.98-11.06.61-.62,1.79-.68,3.04-1.11" fill="#aa1878"/><path d="M551.14,635.82c-1.79-1.32-3.57-2.41-5.1-3.78-12.51-11.2-11.35-9.77-.83-21.2,4.48-4.87,6.09-4.94,11.03-.44,2.33,2.12,4.59,4.3,6.88,6.46,2.64,2.48,2.86,5.1.37,7.81-2.69,2.93-5.33,5.91-8.15,8.71-.98.97-2.45,1.45-4.2,2.44" fill="#aa1878"/><path d="M281.47,476.8c-1.3,2.49-2.06,4.94-3.6,6.7-5.58,6.39-11.35,12.62-17.2,18.76-4.4,4.63-9.27,4.93-14.14.67-6.64-5.8-13.12-11.8-19.47-17.93-3.83-3.7-3.99-9.1-.47-13.07,5.96-6.73,12.02-13.37,18.25-19.85,3.78-3.93,8.81-4.21,13.03-.57,6.93,5.97,13.67,12.18,20.22,18.56,1.62,1.58,2.18,4.24,3.37,6.72" fill="#adc61e"/><path d="M272,351.74c-1.51,2.74-2.42,5.3-4.08,7.21-5.13,5.9-10.52,11.57-15.85,17.29-5.51,5.92-10.28,6.11-16.36.59-5.79-5.26-11.54-10.56-17.25-15.9-4.95-4.63-5.25-9.82-.72-14.91,5.65-6.33,11.41-12.57,17.25-18.72,3.92-4.13,9.12-4.55,13.39-.83,6.77,5.9,13.39,11.99,19.79,18.28,1.74,1.71,2.47,4.44,3.81,6.98" fill="#adc61e"/><path d="M231.66,442.59c-2.77-1.51-5.21-2.33-7-3.9-6.38-5.6-12.62-11.37-18.77-17.22-4.68-4.45-4.8-9.74-.43-14.59,5.46-6.05,10.98-12.07,16.6-17.97,4.9-5.14,10.2-5.27,15.33-.57,5.77,5.28,11.52,10.58,17.25,15.91,5.75,5.35,6.03,10.01.71,15.97-5.32,5.96-10.69,11.9-16.32,17.57-1.99,2-4.81,3.18-7.38,4.82" fill="#adc61e"/><path d="M316.9,528.58c-.96,1.89-1.53,3.89-2.77,5.3-4.49,5.12-9.12,10.13-13.88,15.01-3.43,3.52-7.39,3.72-11.07.49-5.01-4.38-9.86-8.94-14.63-13.58-3.51-3.41-3.67-7.86-.4-11.57,4.4-4.98,8.91-9.88,13.56-14.63,3.31-3.38,7.24-3.64,10.71-.6,5.37,4.71,10.55,9.65,15.65,14.65,1.22,1.2,1.79,3.06,2.82,4.91" fill="#adc61e"/><path d="M282.37,324.88c-2.07-1.1-4.16-1.79-5.71-3.12-4.91-4.22-9.7-8.6-14.37-13.08-3.38-3.24-3.55-7.5-.38-11.14,4.36-5.01,8.88-9.9,13.5-14.68,3.16-3.27,7.65-3.4,11.21-.3,4.87,4.26,9.63,8.66,14.25,13.19,3.67,3.61,3.95,7.32.73,11.07-4.44,5.16-9.09,10.16-13.85,15.02-1.3,1.32-3.33,1.92-5.36,3.04" fill="#adc61e"/><path d="M351.91,262.95c-1.2,2.15-1.95,4.2-3.29,5.74-3.48,4.01-7.18,7.83-10.86,11.66-3.16,3.29-6.76,3.65-10.15.73-4.4-3.78-8.67-7.73-12.83-11.78-3.23-3.14-3.26-6.67-.2-10.16,3.61-4.12,7.31-8.16,11.09-12.12,3.54-3.71,7.03-3.83,10.9-.41,3.98,3.51,7.94,7.07,11.7,10.82,1.44,1.43,2.3,3.45,3.63,5.52" fill="#adc61e"/><path d="M381.68,238.72c1.42.89,2.76,1.53,3.85,2.47,2.39,2.04,4.61,4.29,6.98,6.35,3.32,2.89,3.31,5.81.4,8.96-12.3,13.36-9.38,11.87-22.58.26-2.47-2.17-2.72-4.89-.4-7.45,2.67-2.94,5.36-5.87,8.19-8.65.87-.86,2.22-1.23,3.55-1.94" fill="#adc61e"/><path d="M337.89,570.6c-1.89-1.37-3.58-2.37-4.99-3.65-11.23-10.22-11.9-8.68-.91-20.44,4.29-4.59,5.8-4.46,10.67-.16,11.89,10.49,10.21,9.61.15,20.52-1.28,1.39-3.04,2.34-4.91,3.74" fill="#adc61e"/><path d="M92.63,145.3c1.42-2.71,2.3-5.46,4.04-7.47,5.1-5.92,10.51-11.58,15.86-17.29,5.07-5.41,10.1-5.62,15.61-.63,6.05,5.47,12.09,10.97,18,16.6,4.02,3.82,4.39,9.4.78,13.46-5.64,6.34-11.39,12.59-17.31,18.67-4.75,4.88-9.43,5.07-14.47.64-6.37-5.6-12.64-11.34-18.7-17.28-1.65-1.61-2.4-4.14-3.82-6.7" fill="#1d71a8"/><path d="M31.36,336.83c2.87,1.7,5.63,2.83,7.78,4.69,5.89,5.12,11.55,10.5,17.25,15.84,4.65,4.36,4.9,9.77.62,14.52-5.34,5.92-10.7,11.83-16.22,17.58-5.48,5.72-9.61,5.91-15.45.72-6.08-5.4-12.06-10.93-17.97-16.52-4.32-4.08-4.69-9.28-.74-13.77,5.7-6.48,11.58-12.83,17.65-18.97,1.73-1.75,4.38-2.59,7.08-4.11" fill="#1d71a8"/><path d="M56.87,425.63c-1.23,2.51-1.84,4.89-3.29,6.53-5.72,6.47-11.59,12.81-17.61,19.01-4.42,4.54-9.39,4.6-14.08.38-6.05-5.45-12.06-10.94-17.95-16.57-5.03-4.81-5.22-9.82-.67-14.87,5.34-5.93,10.74-11.79,16.22-17.59,4.94-5.22,9.99-5.42,15.21-.65,6.14,5.6,12.31,11.17,18.21,17.01,1.76,1.74,2.62,4.39,3.96,6.74" fill="#1d71a8"/><path d="M81.76,566.64c2.62,1.29,5.14,1.97,6.91,3.51,6.26,5.45,12.35,11.1,18.36,16.84,5.28,5.04,5.39,9.73.47,15.21-5.33,5.92-10.76,11.75-16.23,17.54-4.48,4.74-9.72,5.08-14.51.8-6.07-5.42-12.03-10.96-17.92-16.58-5.12-4.88-5.25-9.86-.43-15.22,5.33-5.93,10.65-11.88,16.25-17.55,1.86-1.89,4.56-2.96,7.11-4.55" fill="#1d71a8"/><path d="M117.19,615.03c2.66,1.31,5.17,1.97,6.92,3.5,6.27,5.47,12.35,11.16,18.36,16.91,5,4.78,5.21,9.8.65,14.9-5.44,6.07-10.98,12.05-16.62,17.94-4.47,4.67-9.37,4.95-14.11.73-6.22-5.53-12.33-11.19-18.36-16.94-4.71-4.49-4.93-9.68-.59-14.56,5.53-6.22,11.13-12.4,16.95-18.34,1.73-1.77,4.33-2.68,6.79-4.15" fill="#1d71a8"/><path d="M65.65,484.68c-1.37,2.82-2.02,5.34-3.55,7.1-5.35,6.16-10.92,12.12-16.55,18.03-5.3,5.57-9.78,5.69-15.58.47-5.83-5.23-11.6-10.52-17.26-15.92-5.15-4.92-5.35-9.74-.69-14.88,5.36-5.93,10.76-11.82,16.3-17.59,5.05-5.26,9.93-5.36,15.26-.53,5.8,5.26,11.65,10.46,17.21,15.97,1.99,1.97,3.19,4.75,4.87,7.35" fill="#1d71a8"/><path d="M58.14,572.88c-2.57-1.4-4.99-2.23-6.77-3.78-6.24-5.47-12.32-11.14-18.35-16.85-4.81-4.56-5.08-9.64-.75-14.49,5.43-6.07,10.92-12.08,16.58-17.93,4.95-5.12,9.66-5.32,14.84-.72,6.21,5.52,12.31,11.17,18.33,16.89,4.19,3.99,4.47,9.51.61,13.83-5.76,6.43-11.61,12.79-17.67,18.94-1.75,1.77-4.36,2.68-6.82,4.12" fill="#1d71a8"/><path d="M114.76,191.71c-1.41,2.76-2.13,5.25-3.68,7.03-5.57,6.38-11.33,12.61-17.19,18.72-4.36,4.55-9.43,4.72-14.13.52-6.19-5.53-12.29-11.17-18.3-16.9-4.73-4.51-4.9-9.62-.49-14.54,5.54-6.18,11.17-12.28,16.9-18.28,4.16-4.35,9.46-4.66,13.76-.81,6.3,5.65,12.56,11.37,18.59,17.31,1.89,1.86,2.99,4.51,4.55,6.95" fill="#1d71a8"/><path d="M56.65,272.48c-2.74-1.29-5.13-1.85-6.75-3.28-6.48-5.7-12.84-11.56-19.02-17.59-4.67-4.55-4.72-9.28-.42-14.06,5.45-6.04,10.94-12.05,16.57-17.92,4.97-5.18,10.01-5.25,15.26-.47,5.64,5.15,11.27,10.3,16.84,15.52,5.76,5.38,5.96,10.2.72,15.93-5.27,5.76-10.44,11.62-15.94,17.15-1.96,1.97-4.76,3.12-7.26,4.7" fill="#1d71a8"/><path d="M65.93,300c-1.32,2.65-2.01,5.14-3.54,6.9-5.35,6.15-10.92,12.11-16.56,18.01-5.31,5.55-9.86,5.59-15.6.34-5.66-5.16-11.29-10.35-16.9-15.56-5.16-4.8-5.45-10.19-.78-15.31,5.38-5.9,10.76-11.82,16.29-17.58,5-5.22,9.8-5.24,15.19-.29,6.01,5.51,12.09,10.94,17.88,16.68,1.74,1.73,2.61,4.35,4.03,6.83" fill="#1d71a8"/><path d="M160.09,657.88c2.44,1.25,4.91,1.97,6.67,3.5,6.38,5.57,12.6,11.34,18.74,17.17,4.24,4.03,4.49,9.39.62,13.73-5.74,6.44-11.59,12.81-17.55,19.05-3.8,3.98-8.82,4.45-12.97.87-6.92-5.95-13.66-12.13-20.16-18.54-3.86-3.81-3.86-8.43-.26-12.55,5.89-6.75,11.94-13.39,18.2-19.8,1.59-1.62,4.23-2.21,6.72-3.44" fill="#1d71a8"/><path d="M166.36,132.42c-2.41-1.35-4.8-2.22-6.6-3.78-5.52-4.8-10.88-9.8-16.19-14.83-4.29-4.07-4.41-8.77-.4-13.21,4.79-5.31,9.63-10.58,14.56-15.77,4.58-4.83,8.58-5.15,13.45-.87,5.62,4.93,11.13,10.01,16.49,15.22,4.18,4.06,4.45,8.06.72,12.34-5.13,5.89-10.48,11.6-15.96,17.18-1.53,1.56-3.82,2.38-6.09,3.73" fill="#1d71a8"/><path d="M232.75,725.02c-1.43,2.64-2.19,4.89-3.63,6.55-4.69,5.38-9.54,10.62-14.49,15.76-4.65,4.82-8.89,5-13.9.56-5.35-4.73-10.61-9.56-15.72-14.54-4.72-4.59-4.78-8.67-.44-13.47,4.79-5.29,9.64-10.54,14.56-15.72,4.44-4.68,9.03-4.73,13.86-.3,5.14,4.71,10.41,9.29,15.34,14.22,1.86,1.86,2.92,4.51,4.43,6.94" fill="#1d71a8"/><path d="M259.49,729.31c2.34,1.19,4.48,1.81,6.01,3.14,5.28,4.57,10.45,9.27,15.46,14.13,4.25,4.13,4.42,7.82.51,12.27-4.72,5.37-9.62,10.6-14.65,15.67-3.71,3.74-7.45,3.76-11.48.23-5.37-4.72-10.63-9.57-15.81-14.5-3.66-3.48-3.7-8.1-.21-11.98,4.56-5.07,9.13-10.15,13.93-14.99,1.64-1.65,4.01-2.58,6.24-3.97" fill="#1d71a8"/><path d="M236.45,70.33c-1.15,2.16-1.83,4.28-3.18,5.82-4.6,5.25-9.34,10.38-14.2,15.38-4.06,4.18-7.79,4.33-12.25.45-5.26-4.58-10.38-9.33-15.4-14.18-3.84-3.71-4-7.97-.47-11.95,4.63-5.22,9.39-10.33,14.24-15.34,3.79-3.91,8.25-4.06,12.35-.44,5.23,4.62,10.42,9.29,15.38,14.19,1.55,1.53,2.29,3.87,3.53,6.07" fill="#1d71a8"/><path d="M342.17,771.77c-.91,1.93-1.36,3.8-2.47,5.08-4.26,4.86-8.64,9.63-13.17,14.24-3.95,4.02-7.53,4.04-11.74.26-4.57-4.1-9.14-8.21-13.49-12.54-3.86-3.85-3.92-7.21-.34-11.32,4.13-4.75,8.37-9.41,12.72-13.96,3.33-3.48,7.06-3.83,10.64-.77,5.16,4.42,10.14,9.07,14.99,13.83,1.31,1.28,1.87,3.33,2.87,5.18" fill="#1d71a8"/><path d="M268.02,68.89c-2.09-1.11-4.04-1.74-5.46-2.97-4.76-4.14-9.4-8.42-13.96-12.8-3.92-3.77-4.1-7.22-.52-11.33,4.14-4.76,8.42-9.41,12.8-13.94,3.68-3.81,7.52-3.93,11.41-.46,4.59,4.09,9.09,8.27,13.53,12.51,3.97,3.79,4.2,7.86.65,11.82-4.1,4.58-8.23,9.13-12.58,13.47-1.54,1.54-3.75,2.4-5.89,3.71" fill="#1d71a8"/><path d="M376.91,759.6c1.73.91,3.54,1.47,4.85,2.61,4.63,4.06,9.2,8.21,13.57,12.55,3.37,3.34,3.29,7.08.13,10.59-3.79,4.21-7.59,8.41-11.49,12.51-3.95,4.16-7.32,4.25-11.66.37-4.34-3.88-8.67-7.78-12.85-11.84-3.07-2.98-3.39-6.6-.64-9.85,4.18-4.96,8.62-9.72,13.16-14.36,1.18-1.21,3.14-1.67,4.95-2.58" fill="#1d71a8"/><path d="M326,6.42c2.14,1.33,4.27,2.29,5.96,3.76,4.01,3.48,7.83,7.16,11.68,10.82,4.05,3.85,4.22,7.54.44,11.73-3.78,4.18-7.65,8.3-11.57,12.36-3.69,3.81-6.94,4.02-10.88.55-4.48-3.95-8.85-8.04-13.16-12.16-3.24-3.1-3.77-6.63-.69-10.13,4.17-4.74,8.4-9.42,12.83-13.9,1.3-1.32,3.35-1.91,5.39-3.02" fill="#1d71a8"/><path d="M438.85,798.49c-5.34-.15-21.89-14.98-22.05-18.98-.07-1.82.61-4.08,1.76-5.46,3.95-4.72,8.14-9.25,12.46-13.63,3.57-3.63,7.15-3.61,10.99-.2,4.22,3.76,8.39,7.6,12.46,11.53,4.05,3.9,4.18,7.17.54,11.28-3.64,4.11-7.27,8.24-11.15,12.12-1.66,1.65-3.94,2.66-5,3.35" fill="#1d71a8"/><path d="M407.58,19.92c-.91,1.91-1.33,3.62-2.36,4.79-4.05,4.64-8.2,9.21-12.49,13.62-3.47,3.57-6.85,3.69-10.56.44-4.39-3.83-8.68-7.79-12.86-11.85-3.99-3.88-4.1-7.14-.44-11.26,3.98-4.48,8.02-8.9,12.18-13.21,3.03-3.14,6.57-3.25,9.81-.46,4.67,4.01,9.22,8.19,13.58,12.53,1.42,1.41,2.1,3.57,3.13,5.4" fill="#1d71a8"/><path d="M504.79,50.4c-1.37-.5-2.87-.64-3.78-1.45-4.7-4.19-9.61-8.24-13.64-13.02-1.21-1.44-.77-5.7.52-7.54,3.02-4.31,6.95-7.99,10.62-11.83,2.86-3,6.26-3.24,9.34-.63,4.29,3.64,8.63,7.36,12.19,11.67,1.36,1.65,1.82,5.87.67,7.45-3.59,4.92-8.09,9.2-12.38,13.59-.85.87-2.3,1.17-3.55,1.77" fill="#1d71a8"/><path d="M496.58,754.92c1.11.18,1.76.09,2.07.37,5.56,5.11,11.27,10.09,16.43,15.58.81.87-.32,4.57-1.57,6.16-3.27,4.17-7.02,7.98-10.75,11.78-2.72,2.77-5.95,3.02-8.92.47-4.17-3.56-8.2-7.28-12.15-11.08-2.6-2.5-3.21-5.61-.77-8.49,3.76-4.43,7.73-8.69,11.81-12.83,1.07-1.09,2.85-1.47,3.86-1.96" fill="#1d71a8"/><path d="M427.61,21.38c-.05-4.55,13.17-19.29,16.92-19.27,1.81.01,3.93.9,5.35,2.07,3.83,3.18,7.37,6.7,11,10.12,3.36,3.16,3.68,6.58.55,10.05-3.45,3.83-6.96,7.6-10.53,11.31-2.69,2.79-5.87,3.33-8.89.76-4.3-3.66-8.43-7.53-12.46-11.49-1.1-1.08-1.56-2.8-1.95-3.54" fill="#1d71a8"/><path d="M576.8,50.36c-1.98,2.45-3.46,4.36-5.01,6.2-10.52,12.42-10.31,9.18-19.89.46-5.71-5.2-5.64-6.54-.41-12.16q9.76-10.48,20.33-.42c1.71,1.63,3.07,3.63,4.98,5.92" fill="#1d71a8"/><path d="M568.85,754.2c-2.12,2.61-3.65,4.69-5.38,6.6-8.53,9.4-8.43,10.82-18.89.64-6.33-6.15-6.46-6.88-.61-13.19,9.28-10.01,8.86-10.95,19.56-.27,1.78,1.78,3.29,3.83,5.32,6.22" fill="#1d71a8"/><path d="M622.44,725.6c-.66,1.22-1.17,2.66-2.09,3.74-2.59,3.01-5.34,5.9-8.06,8.79-2.31,2.46-4.9,2.7-7.45.49-3.01-2.6-5.91-5.32-8.78-8.06-2.58-2.45-2.81-5.21-.45-7.91,2.72-3.12,5.35-6.42,8.55-8.98,1.39-1.11,4.79-1.53,6.09-.6,3.88,2.75,7.21,6.29,10.66,9.62.67.64.93,1.71,1.54,2.9" fill="#1d71a8"/><path d="M627.72,82.11c-3.86,3.29-7.4,7.13-11.72,9.63-2.15,1.24-12.07-9.01-10.73-10.76,3.07-3.99,6.77-7.76,10.94-10.52,1.86-1.23,10.74,8.1,11.51,11.64" fill="#1d71a8"/><path d="M667.52,689.6c-3.79,3.4-7.58,6.8-11.37,10.2-3.77-3.67-7.55-7.33-11.32-11,3.6-3.63,6.88-7.71,10.97-10.67,1.65-1.2,10.83,8.05,11.72,11.47" fill="#1d71a8"/><path d="M671.62,117.4c.03,3.47-5.13,8.98-8.53,9.12-3.41.13-9.04-5.01-9.19-8.4-.16-3.77,5.1-9.38,8.73-9.31,3.59.07,8.96,5.2,8.99,8.59" fill="#1d71a8"/><path d="M705.65,648.7c-.12,3.55-5.46,8.8-8.86,8.71-3.78-.09-9.35-5.66-9.16-9.15.17-3.24,5.99-8.53,9.27-8.45,3.39.09,8.87,5.65,8.76,8.88" fill="#1d71a8"/><path d="M710.61,160.96c-4.04,2.93-6.38,5.5-9.25,6.44-2.53.83-7.37-4.65-6.16-6.86,1.4-2.55,4.27-5.76,6.65-5.88,2.32-.12,4.83,3.29,8.76,6.3" fill="#1d71a8"/><path d="M978.53,429.81c.14-3.1.29-4.83.29-6.57.01-28.49.09-56.98-.08-85.46-.03-4.16.99-6.31,5.3-7.3,6.1-1.41,12.04-3.54,18.59-5.52v163.39c-35.35-36.72-70.01-72.72-104.67-108.73-.38.13-.77.26-1.15.38v5.2c0,29.82-.08,59.64.09,89.46.02,4.23-.88,6.11-5.49,5.7-4.46-.4-9-.32-13.48-.02-4.07.27-5.53-1.02-5.43-5.28.27-11.99.09-23.99.09-35.98,0-37.65,0-75.3,0-112.95v-5.28c.42-.2.84-.4,1.26-.6,34.59,36.2,69.17,72.41,104.68,109.58" fill="#1d71a8"/><path d="M1119.06,349.93v42.78h61.42c-2.56,7.54-4.68,14.31-7.28,20.88-.4,1.01-3.04,1.59-4.65,1.6-14.5.12-29,.07-43.5.07h-6.05c-.09,1.82-.23,3.41-.23,5.01-.02,10.17-.01,20.33-.01,30.5q0,6.6,6.38,6.61c20.5,0,41,0,61.49,0h6.57c-2.52,7.51-4.59,14.13-7.05,20.59-.42,1.09-2.52,2.18-3.85,2.19-28,.12-55.99.07-83.99.11-2.59,0-3.64-1.1-3.5-3.6.06-1,0-2,0-3,0-46.83.07-93.66-.1-140.49-.02-4.82,1.33-6.13,6.13-6.09,28.66.22,57.33.11,85.99.11h6.31c-2.55,7.54-4.62,14.32-7.26,20.87-.45,1.12-3.32,1.78-5.07,1.79-18.66.13-37.33.08-55.99.08h-5.75" fill="#1d71a8"/><path d="M1355.37,393.59c-2.55,7.45-4.61,14.09-7.24,20.51-.47,1.15-3.29,1.85-5.03,1.87-14.33.15-28.66.08-42.99.08h-5.88c-.12,2.47-.31,4.42-.31,6.37-.02,17.5-.12,34.99.06,52.49.04,4.08-1.13,5.7-5.36,5.43-4.98-.32-10-.2-14.99-.03-3.07.1-4.28-1.16-4.04-4.12.07-.83,0-1.67,0-2.5,0-46.32,0-92.65,0-138.97q0-6.83,6.85-6.84c28.33,0,56.65,0,84.98,0h6.37c-2.5,7.48-4.54,14.26-7.17,20.82-.43,1.07-3.38,1.59-5.16,1.6-18.66.11-37.32.21-55.98-.03-4.38-.06-5.79,1.14-5.67,5.58.29,10.99.23,21.99.03,32.99-.07,3.74,1.16,4.88,4.88,4.84,16.83-.17,33.66-.07,50.49-.07h6.17" fill="#1d71a8"/><path d="M685.34,328.14c-2.45,7.32-4.54,14.09-7.12,20.67-.39.98-3.08,1.48-4.71,1.48-18.49.1-36.99.06-55.48.06h-5.97v43.1h60.9c-2.48,7.46-4.48,14.11-7.05,20.53-.47,1.17-3.28,1.96-5.02,1.98-14.33.16-28.66.28-42.98-.02-4.85-.1-6.62.9-6.51,6.24.38,17.65.04,35.32.22,52.98.04,3.87-.99,5.42-5.04,5.16-4.81-.31-9.67-.28-14.49,0-3.72.21-4.9-1.07-4.86-4.81.18-15.66.07-31.32.07-46.98,0-31.49.08-62.98-.09-94.47-.03-4.6.94-6.37,5.99-6.33,28.82.23,57.65.11,86.47.13,1.61,0,3.23.15,5.68.27" fill="#1d71a8"/><path d="M441.9,320.32l-1.41.25c-22.32,52.95-44.63,105.89-67.3,159.7,7.45,0,13.92-.19,20.37.08,3.35.14,5.16-.98,6.38-4.09,3.17-8.05,6.7-15.95,9.87-24,1.14-2.91,2.76-4.01,5.93-3.98,17,.14,34,.15,50.99,0,3.19-.03,4.8,1.12,5.94,3.97,3.27,8.18,6.64,16.33,10.24,24.37.68,1.51,2.59,3.4,4.01,3.48,6.96.36,13.95.16,22.41.16-22.77-54.01-45.11-106.97-67.44-159.93M421.41,425.09c6.57-15.65,12.9-30.73,19.84-47.25,6.99,16.46,13.41,31.6,20.06,47.25h-39.9Z" fill="#1d71a8"/><path d="M787.64,452.15v-49.89h0l-.13-79.34c-6.61,1.99-12.6,4.12-18.75,5.52-4.34.99-5.37,3.15-5.34,7.3.13,22.17-.1,44.34-.12,66.51h0v24.4c-.02.35.02.73,0,1.12v40.89s.01,5.01-.07,6.47c0,0,.17,3.17.84,3.72,0,.03,1.03,1.23,3.4,1.14,0,0,11.67-.39,14.54-.08.03.03,3.37.22,4.15-.5.03,0,1.56-1.14,1.53-3.79.03.03-.05-6.88-.05-6.88v-16.6Z" fill="#1d71a8"/></g></svg>