<svg xmlns="http://www.w3.org/2000/svg" version="1.1" viewBox="0 0 205 40" aria-hidden="true" focusable="false">
  <g focusable="false">
    <path d="M10.4748,25.67632s4.33944,3.56664,6.42573.29191c0,0,.72993-1.16793.91799-2.39871,0,0,.02067-1.14741,1.14728-1.75205,0,0,.12499,1.62677,1.64807,2.31534.12544.06221.25044.10419.37541.08335,0,0,0-.10415-.20847-.22974-.27139-.16661-.3337-.10383-.39634-.16661-.35456-.29253-.75107-.70911-.77205-1.0433l1.04311.45887s.70928.20888.79259,1.23104c0,0,.08378.72993.47999,1.37655,0,0-2.44068-.25029-3.92183,2.482l-.18776-.31243s-.02099.89689-.58414,1.2099c0,0-.08344-.58444-.47999-.66742,0,0-.06264.91771-.70939,1.31435,0,0,.10445-.58444-.33372-.83466,0,0-.60498,1.27236-1.75256,1.23009,0,0,.20895-.43772.06279-1.06316,0,0-1.21005,1.14741-2.27402.68855,0,0,.50083-.39636.47984-1.25218,0,0-1.41863.79334-2.71189-1.14679,0,0,.35456.35467,1.481-.25059,0,0-.68827-.81352-.52163-1.56429" fill="#ed1c2e"/>
    <path d="M12.31067,6.52725s1.48128.29221.29221,2.87866c0,0-.54232,2.0443.62593,2.96201,0,0,.16679.16694.3129.43798,0,0-1.46048.52165-.45902,3.19173,0,0-.95967-.31303-1.33521-.93881,0,0,.25029-.10447.35487-.58414,0,0-.77202.33417-1.37713-.47999l.70939-.47906s-.62591-.02112-1.33534-1.00192l.85553-.35439s-.91771-.16694-1.20992-1.08467h.81324s-.70909-1.27236-.52103-1.98181c0,0,.56314.50083,1.02199.54219,0,0,.43835-.64662-.16709-1.35571,0,0-.29176-.56332.06281-1.35575,0,0,.02097.12501.52163.22944,0,0,.52135,0,.83425,1.12631l.10445-.10445s-.47986-.85522-.10445-1.64762" fill="#ed1c2e"/>
    <path d="M24.38989,22.04659l.91803-.08363s4.42262-.56297,4.33929-6.36199c0,0-.12529-3.35837-2.60774-4.94378-.1878-.12467-.56329-.39578-.95985-.52137-.41718-.12525-1.27253-.31238-1.96082.14642-.25054.14584-.5426.52137-.62595.79242-.06277.25029-.16676,1.00102.87637,1.85656l.37554-.47999s-.70943-.52105-.50096-1.06348c.20873-.5428.70926-.47969.75105-.50083.60496-.04197,2.62889.1256,3.71368,3.94246,0,0,.64662,2.98283-1.56461,5.29819,0,0,.35439-1.4185-1.27258-3.83771,0,0-1.43964-2.00296.54217-4.52662l-.62591-.4172s-2.52416,2.96168-.45887,5.48597c0,0,1.62738,1.98119.95965,3.27441-.14596.29223-.47986.64664-.83438.75138-.35487.08335-1.37685.31305-1.37685.31305" fill="#ed1c2e"/>
    <path d="M26.76821,10.17778s1.10562-1.37651,4.48543-1.73153c0,0,.20858.93883-1.64811,1.52297,0,0,.08348.35469,1.68991-.04199,0,0-.6469,1.481-2.56623.77187,0,0-.83438-.27104-1.39768-.06216" fill="#ed1c2e"/>
    <path d="M19.15358,3.94078s.66744.33355.6466,1.54349l3.00425,1.08495s.31292-.81388,1.502-1.1894c0,0-.10428-.2083-.91803-.08363,0,0-.14609-.24994-.60494-.33357,0,0-.16676.23005.04181.68889,0,0-.43802.2291-.54232.33327,0,0-.14612-.31305-.29221-.56304,0,0,.56332-.14609.56332-.60464,0,0-.25044.12469-.37554.08331,0,0,.43817-.56329-.16663-1.04296,0,0-.41767.29193-.47999.85522,0,0-.31307-.22972-.54262-.27111,0,0-.1043.29133.06277.77159,0,0-.14609.25057-.45884.29193,0,0-.33385-.12527-.45915-.54247l.25042-.02082s.25024-.12469.31271-.25026c0,0-.18776-.12497-.50062-.12497l-.02071-.08361h.0835s.02067-.75105-1.10577-.54217" fill="#ed1c2e"/>
    <path d="M19.02841,18.5841l-.10443-.14644c.91818-.33355,1.1894-1.37653,1.1894-1.37653.33372-1.73125,1.29322-1.75209,1.29322-1.75209l-.12514.14644c-.64675.24994-.77205,1.41787-.77205,1.41787-.04164,1.48133-1.481,1.71075-1.481,1.71075M18.11027,18.68855l-.6466.2291-.20862-.06246.04181-.04199.29193-.06246c.77202-.43772,1.14743-1.81427,1.14743-1.81427.56345-1.31433,1.52312-1.43964,1.52312-1.43964l.08331.12532-.14609.06246c-.98035.37552-1.0848,1.43932-1.0848,1.43932-.04169,1.35573-1.00149,1.56463-1.00149,1.56463M20.0299,7.31965s.10415-.12495.16666,0l.0211.06311-.06279.02082s-.06264,0-.18759.06246c0,0-.12512.08335-.18778-.06246l.25039-.08393M29.41747,30.68261c-.12495-.29223-.25011-.66775-.25011-.66775l.95952.02114c-.87617-.02114-.93881-1.54349-.93881-1.54349-.22944-1.29325.54247-2.10709.54247-2.10709-2.50331.06279-3.10827-1.46018-3.10827-1.46018-1.16825-1.14679-1.56478-3.85885-1.56478-3.85885,0,0-.04164-.25024-.14594-.39666-.10445-.18778-.16679-.27109-.41735-.52103-.35484-.37584-1.64794-1.16795-1.81501-1.29353-.73008-.50051-1.10547-1.10547-1.10547-1.10547-.43835.54249-1.00149.68794-1.00149.68794l-.06281-.18743c2.37832-1.50152,1.43968-3.81691,1.43968-3.81691.10443-.50109.47979-1.14773.47979-1.14773,1.66893-2.23206.50066-5.42316.50066-5.42316.45884-.75077-.14609-.85522-.14609-.85522-.60494-.1256-.62595.16666-.62595.16666l-.08346-.02084-.04149-.06246-1.71088-.62548c-.56314-.31337-.83425-.23005-.83425-.23005-.04181.3342.06249.47999.06249.47999.12514.10445.27111.06246.27111.06246.62608-.16691.89717.29193.89717.29193l-.08348.10445c-.16694-.18776-.35469-.18776-.35469-.18776-.43785-.04138-.41718.2086-.41718.2086-.14614.20888-.20847-.02084-.20847-.02084l-.06266-.2089c-.45884-.10385-.37549-.72993-.37549-.72993-.79274.04194-1.54381.29223-1.54381.29223-.27134.10413-.18774.29221-.18774.29221l.22957.33355-.12544.45856c-.27109.70971.50081.73021.50081.73021h1.04326c.79261.16724.24996.70971.24996.70971.02114.89659-.50051.70883-.50051.70883-.68827-.54217-1.0638-.06221-1.0638-.06221-.22972.45884.29176.45884.29176.45884,1.0433.02082.39668.79244.39668.79244-.25057.58412-.93883.45884-.93883.45884-1.64809-.16666-1.94017.6466-1.94017.6466-.60496.6261-.52165,2.39871-.52165,2.39871-.43815-1.06352.04169-2.29424.04169-2.29424-1.50198.52163-.95965,3.31666-.95965,3.31666-.70913-1.5018-.22962-2.41949-.22962-2.41949-1.35584.18746-.95933,2.19009-.95933,2.19009l.5215,1.27212-1.39787.70907c-1.12659.6264-1.836.06309-1.836.06309-2.04413-1.89848-4.27651-.08331-4.27651-.08331,1.10545.75107,2.33634.39578,2.33634.39578-.29174.47994-1.56442,1.04324-1.56442,1.04324,2.1697.85553,2.7955-.14579,2.7955-.14579.29206.89656-.2086,1.39765-.2086,1.39765.83438.22914,1.85654-.81414,1.85654-.81414-.08335.47999-.45887.89749-.45887.89749.7719-.02082,1.6274-1.00102,1.6274-1.00102.06251.47906-.27139.83378-.27139.83378,1.06413-.16666,1.64794-1.12599,1.64794-1.12599.04181.54215-.27104.97987-.27104.97987.60494-.08301,1.04324-.58414,1.04324-.58414-1.14756-.87572-.87617-1.52234-.87617-1.52234.35452,1.398,1.56431,1.6268,1.56431,1.6268.98078-.16663,1.58576-1.77289,1.58576-1.77289.75107-1.58515,1.68991-1.41822,1.68991-1.41822-1.12661.41688-1.21009,1.12629-1.21009,1.12629-.41731,1.66848-1.04298,1.89818-1.04298,1.89818.20847.64632,1.60645,1.00102,1.60645,1.00102.35439.16694.87589.43802,1.14711.58444,2.25292,1.14681,2.46182,3.19111,2.46182,3.19111.3337,2.16957,2.02358,2.67038,2.02358,2.67038,3.31718,1.08465,3.06663,3.42113,3.06663,3.42113-.18778,3.50433-2.31569,4.81825-2.31569,4.81825l.06264.02069c.60511.18789.9805-.04108.9805-.04108.16709.49997,0,.91745,0,.91745,1.75254-.25061,2.64954-2.14856,2.64954-2.14856.45902.58433,1.12661.60442,1.12661.60442-.45887-.72989-.33387-2.25206-.33387-2.25206l.68827.43755-.3334-.81302-.12544-.52238c.25054.25117.79274.45975.79274.45975-.02082-.1464-.18763-.39668-.33389-.68857" fill="#ed1c2e"/>
    <path d="M19.09079,21.73384s.91797-.45884,1.41863.54217l.45919.81356s.27122.41746.29176.52133c0,0-.16663-.39606-.91771-.62578,0,0-1.16808-.41688-1.25186-1.25128" fill="#ed1c2e"/>
    <polyline points="19.82102 5.73481 19.80018 5.88061 22.22017 6.81946 22.5124 6.65252" fill="#ed1c2e"/>
    <path d="M16.1911,6.94471s.06279,1.87676,1.77326,1.85656c0,0,.18774-.20892,1.27253.35437l-.06231.25026s-.39653-.43802-1.1683-.29221c0,0-1.08477.39634-1.79421-.16663,0,0-1.12674-.91771-.02097-2.00235" fill="#ed1c2e"/>
    <polyline points="38.45919 40 39.19313 40 39.19313 0 38.45919 0" fill="#5a5b5d"/>
    <g>
      <polygon points="51.27393 15.38788 52.48779 15.38788 52.48779 11.10516 53.9624 11.10516 53.9624 10.00409 49.81836 10.00409 49.81836 11.10516 51.27393 11.10516 51.27393 15.38788" fill="#5a5b5d"/>
      <polygon points="57.90527 15.38788 59.11914 15.38788 59.11914 10.01337 57.90527 10.01337 57.90527 12.07001 55.77588 12.07001 55.77588 10.01337 54.56201 10.01337 54.56201 15.38788 55.77588 15.38788 55.77588 13.17108 57.90527 13.17108 57.90527 15.38788" fill="#5a5b5d"/>
      <polygon points="63.64697 14.31464 61.70264 14.31464 61.70264 13.14325 63.5625 13.14325 63.5625 12.09833 61.70264 12.09833 61.70264 11.04852 63.64697 11.04852 63.64697 10.00409 60.48877 10.00409 60.48877 15.38788 63.64697 15.38788 63.64697 14.31464" fill="#5a5b5d"/>
      <path d="M69.70605,14.27802c-.06543.01514-.13477.02832-.20654.04053-.37109.05908-.78027.04053-1.09912-.07764-.19287-.07129-.35986-.17578-.49609-.31055s-.24414-.30469-.32129-.50537c-.0791-.20459-.11914-.44531-.11914-.71484,0-.2915.04541-.54492.13477-.75342.08887-.2085.20898-.38232.35645-.5166.15039-.13721.32568-.24219.52148-.31201.39404-.14111.84668-.13086,1.26904-.04248.20947.04346.42383.10742.63672.18994l.2876.11182.1875-1.15723-.20654-.06494c-.25293-.0791-.50635-.13721-.75244-.17285-.68457-.10107-1.41553-.06348-1.97998.16602-.3623.14648-.67432.3501-.92676.60498-.25391.25537-.45117.56055-.58643.90723-.13428.34277-.20215.71631-.20215,1.10986,0,.4248.06787.80713.20166,1.13672.13623.33496.33105.61963.5791.8457.24609.22559.54248.39941.88037.51709.33154.11475.70068.17334,1.09619.17334.3335,0,.6499-.02588.94043-.07764.2915-.05127.57812-.12646.85205-.22314l-.08301-.23535h.25v-2.50879h-1.21387v1.86963h0Z" fill="#5a5b5d"/>
      <path d="M74.38037,9.92889c-.3623,0-.70898.06396-1.03076.19092-.3252.12842-.61328.31641-.85547.55859-.24072.24072-.43555.5376-.58008.88379-.14355.3457-.21631.74316-.21631,1.18066,0,.37988.04932.73584.14697,1.05811.1001.33154.25488.625.46045.87207.20947.25195.47998.44922.80371.58643.31738.13525.69434.20361,1.12109.20361.37305,0,.72656-.0625,1.05127-.18555.32812-.12402.61816-.30859.8623-.54883.24219-.23877.43652-.5376.57715-.8877.14014-.34814.21094-.74609.21094-1.18262,0-.86426-.229-1.5415-.68018-2.01367-.45361-.4751-1.0835-.71582-1.87109-.71582h.00002ZM75.6709,12.7287c0,.27686-.0376.52002-.11182.72412-.07275.19971-.17188.36719-.29492.49854-.12109.12842-.26562.22656-.43018.29102-.38477.15186-.89062.12451-1.17773-.02588-.16357-.08594-.29297-.19824-.39648-.34277-.10547-.14844-.18213-.32422-.22754-.52246-.04883-.21387-.07373-.44531-.07373-.68848,0-.27539.03906-.51807.11572-.72168.0752-.2002.17725-.37061.30225-.50732.12109-.13184.26416-.2334.42432-.30127.16455-.06885.33252-.10254.51416-.10254.42871,0,.75195.1333.98926.40771.24316.28125.3667.71582.3667,1.29102h-.00002Z" fill="#5a5b5d"/>
      <path d="M80.12012,15.38788l2.15332-5.38379h-1.28027l-1.24707,3.09912c-.06348.16309-.12451.32861-.18311.49561-.06104-.17822-.12646-.35596-.19629-.53223l-1.16895-3.0625h-1.33789l2.12207,5.38379h1.1382Z" fill="#5a5b5d"/>
      <polygon points="85.8457 14.31464 83.90186 14.31464 83.90186 13.14325 85.76123 13.14325 85.76123 12.09833 83.90186 12.09833 83.90186 11.04852 85.8457 11.04852 85.8457 10.00409 82.68799 10.00409 82.68799 15.38788 85.8457 15.38788 85.8457 14.31464" fill="#5a5b5d"/>
      <path d="M88.13818,13.65057l1.37598,1.7373h1.55273l-1.89941-2.3042c.07422-.01758.146-.03857.21533-.0625.21973-.0752.41455-.18359.57764-.32227.16797-.1416.30078-.31592.39502-.51807.09277-.20117.14014-.43262.14014-.68701,0-.49707-.18555-.88135-.55078-1.14258-.33936-.24316-.82275-.36621-1.43652-.36621-.28955,0-.54883.00146-.77832.00488-.23145.00293-.42041.00781-.56689.01465l-.23877.01025v5.37305h1.21387v-1.7373h0ZM88.15381,12.21552c-.00488,0-.01025,0-.01562-.00049v-1.18115c.07617-.00293.16797-.00391.27588-.00391.28613,0,.50732.05176.6582.1543.07812.05273.18164.15088.18164.39404,0,.20215-.0625.34863-.19678.46094-.19678.16455-.54639.18945-.90333.17627Z" fill="#5a5b5d"/>
      <path d="M92.80664,12.37665c0-.09668-.00049-.18799-.00098-.2749.02539.04053.05127.08057.07764.12061l2.07422,3.16553h1.32422v-5.38379h-1.20508l.01025,2.5415c0,.2793.00146.53027.00439.75244-.03613-.05615-.07227-.11133-.10889-.16602l-2.0459-3.12793h-1.31543v5.38379h1.19629l-.01074-3.01123h.00002Z" fill="#5a5b5d"/>
      <path d="M101.2168,15.38788l1.07959-3.12158c.00244.01709.00439.03418.00684.05127l.43408,3.07031h1.25781l-.78711-5.38379h-1.32227l-1.18799,3.35498c-.00928.02734-.01807.05469-.02686.08105-.01416-.04004-.02881-.08057-.04395-.12109l-1.1377-3.31494h-1.27686l-.80811,5.38379h1.22412l.39453-3.05371c.00098-.01025.00244-.02051.00391-.03076l1.05322,3.08447h1.13676Z" fill="#5a5b5d"/>
      <polygon points="108.27734 14.31464 106.33301 14.31464 106.33301 13.14325 108.19238 13.14325 108.19238 12.09833 106.33301 12.09833 106.33301 11.04852 108.27734 11.04852 108.27734 10.00409 105.11914 10.00409 105.11914 15.38788 108.27734 15.38788 108.27734 14.31464" fill="#5a5b5d"/>
      <path d="M110.54102,12.37665c0-.09619,0-.1875-.00098-.27393.02539.04004.05078.07959.07715.11963l2.0752,3.16553h1.32324v-5.38379h-1.20508l.01074,2.5415c0,.2793.00098.52979.00391.75195-.03516-.05566-.07129-.11084-.1084-.16553l-2.04688-3.12793h-1.31445v5.38379h1.19629s-.01074-3.01123-.01074-3.01122Z" fill="#5a5b5d"/>
      <polygon points="116.07129 15.38788 117.28516 15.38788 117.28516 11.10516 118.75977 11.10516 118.75977 10.00409 114.61523 10.00409 114.61523 11.10516 116.07129 11.10516 116.07129 15.38788" fill="#5a5b5d"/>
      <path d="M52.77295,20.97284c-.36035,0-.70703.06445-1.03076.19141-.32666.12891-.61426.31738-.85498.55859-.24121.24023-.43652.53809-.58057.88379-.14355.3457-.21631.74316-.21631,1.18066,0,.37988.04932.73535.14697,1.05859.09961.33105.25488.62402.46094.87207.20996.25195.48047.4502.80322.58691.31689.13379.69434.20215,1.12109.20215.375,0,.729-.0625,1.05127-.18555.32764-.12305.61768-.30762.86182-.54883.24316-.23926.4375-.53809.57764-.88672s.21094-.74609.21094-1.18359c0-.86426-.22852-1.54102-.67969-2.01367-.4541-.47461-1.08398-.71582-1.87158-.71582h0ZM54.06348,23.77362c0,.27637-.0376.51953-.11182.72461-.07227.19824-.17188.36621-.29492.49805-.12158.12891-.26611.22656-.42969.29102-.39111.15039-.89307.12305-1.17725-.02539-.16406-.08691-.29443-.19922-.39746-.34277-.10547-.14844-.18213-.3252-.22754-.52344-.04883-.21387-.07373-.44531-.07373-.68848,0-.27539.03906-.51855.11572-.72168.07568-.2002.17725-.37109.30176-.50684.12256-.13281.26562-.23438.42432-.30176.16357-.06836.33691-.10254.51465-.10254.42822,0,.75195.13379.98926.40723.24316.28223.3667.7168.3667,1.29199Z" fill="#5a5b5d"/>
      <polygon points="56.20557 26.43182 57.41943 26.43182 57.41943 24.24432 59.24121 24.24432 59.24121 23.1994 57.41943 23.1994 57.41943 22.09296 59.34473 22.09296 59.34473 21.04803 56.20557 21.04803 56.20557 26.43182" fill="#5a5b5d"/>
      <polygon points="61.4873 22.1496 62.94336 22.1496 62.94336 26.43182 64.15674 26.43182 64.15674 22.1496 65.63135 22.1496 65.63135 21.04803 61.4873 21.04803 61.4873 22.1496" fill="#5a5b5d"/>
      <polygon points="69.57471 23.11444 67.44482 23.11444 67.44482 21.0578 66.23096 21.0578 66.23096 26.43182 67.44482 26.43182 67.44482 24.216 69.57471 24.216 69.57471 26.43182 70.78857 26.43182 70.78857 21.0578 69.57471 21.0578 69.57471 23.11444" fill="#5a5b5d"/>
      <polygon points="72.1582 26.43182 75.31592 26.43182 75.31592 25.35956 73.37207 25.35956 73.37207 24.18768 75.23145 24.18768 75.23145 23.14276 73.37207 23.14276 73.37207 22.09296 75.31592 22.09296 75.31592 21.04803 72.1582 21.04803 72.1582 26.43182" fill="#5a5b5d"/>
      <path d="M81.37549,25.32245c-.06543.01465-.13428.02832-.20654.04004-.37012.05859-.78125.04199-1.09912-.07715-.19629-.07324-.35889-.1748-.49658-.31055-.13623-.13477-.24463-.30469-.32129-.50488-.0791-.20605-.11914-.44629-.11914-.71582,0-.29102.04541-.54395.13525-.75391.08936-.20996.20557-.37793.35596-.51562.15039-.13672.32568-.24219.52197-.31152.39307-.14258.84717-.13086,1.26807-.04395.21631.04688.43115.11035.63721.19141l.28857.1123.18652-1.15723-.20605-.06543c-.24951-.0791-.50342-.1377-.75342-.17285-.69775-.10059-1.4165-.0625-1.97998.16602-.36182.14648-.67334.34961-.92676.60449-.25342.25586-.4502.56152-.58545.90723-.13428.34473-.20264.71777-.20264,1.10938,0,.4248.06787.80762.20166,1.13672.13525.33398.33008.61914.5791.84668.24512.22461.5415.39844.88037.5166.33301.11523.70215.17383,1.09668.17383.32861,0,.64453-.02637.94092-.07812.29443-.05273.58105-.12793.85156-.22363l.16699-.05859v-2.68555h-1.21387v1.87012-.00002Z" fill="#5a5b5d"/>
      <path d="M89.84326,21.04803l-2.02948,5.14893-1.70538-2.06885c.07373-.01758.14551-.03809.21484-.0625.21924-.0752.41357-.18359.57715-.32227.16748-.14062.30078-.31445.39551-.51855.09277-.20117.14014-.43164.14014-.68652,0-.49707-.18555-.88184-.55078-1.14258-.33936-.24316-.82275-.36621-1.43652-.36621-.28906,0-.54883.00195-.77832.00488-.23096.00293-.41992.00781-.56592.01367l-.23975.00977v5.37402h1.21387v-1.73633l1.37598,1.73633h2.51855l.42285-1.08887h1.93896l.41309,1.08887h1.32666l-2.0918-5.38379h-1.13965.00002ZM86.19434,22.62225c0,.20215-.0625.34863-.19678.46094-.19727.16602-.55273.1875-.90332.17676h-.01562v-1.18164c.07568-.00293.16797-.00391.27588-.00391.28613,0,.50732.05176.6582.1543.07764.05273.18164.15137.18163.39355ZM90.9458,24.29803h-1.15771l.52051-1.33203c.02246-.05078.04395-.10254.06445-.1543.01807.04883.03662.09766.05566.14551l.51709,1.34082Z" fill="#5a5b5d"/>
      <path d="M97.07129,23.59003c0,.2793.00146.53027.00488.75195-.03613-.05566-.07227-.11133-.10938-.16602l-2.0459-3.12793h-1.31494v5.38379h1.1958l-.01025-3.01074c0-.0957-.00049-.1875-.00098-.27344.02539.04004.05127.08008.07715.11914l2.07422,3.16504h1.32471v-5.38379h-1.20557s.01025,2.54199.01025,2.542Z" fill="#5a5b5d"/>
      <path d="M103.55273,21.65936c-.25293-.2207-.56396-.38281-.92627-.48438-.56348-.15625-1.24023-.15332-2.00635-.13574-.28955.00586-.53467.00879-.73389.00879h-.25v5.38379h.25c.18604,0,.38281.00391.59082.00977.2124.00586.45801.00977.73633.00977.43311,0,.84229-.05371,1.21729-.16016.38281-.10938.71973-.28027,1-.50586.28613-.22852.5127-.52344.67383-.875.1582-.34766.23926-.75977.23926-1.22656,0-.44922-.06738-.8457-.20117-1.17773-.13574-.33789-.33496-.62305-.58985-.84669ZM103.08301,23.73553c0,.29199-.04395.54395-.13086.75098-.08398.20117-.20215.36719-.35107.49512-.1499.12988-.33545.22852-.55127.29395-.31152.09473-.62305.11816-1.10547.09277-.03271-.00098-.06445-.00293-.09424-.00391v-3.26172c.04297-.00195.08643-.00391.13086-.00488.12939-.00293.25049-.00488.36084-.00488,1.18799,0,1.74121.52148,1.7412,1.64257Z" fill="#5a5b5d"/>
      <path d="M111.08887,21.65936c-.25293-.2207-.56445-.38281-.92578-.48438-.56348-.15723-1.24121-.1543-2.00684-.13574-.29004.00586-.53418.00879-.73438.00879h-.25v5.38379h.25c.18652,0,.38281.00391.59082.00977.21289.00586.45801.00977.73633.00977.43359,0,.84375-.05371,1.2168-.16016.38379-.10938.7207-.28027,1.00098-.50586.28613-.22852.5127-.52344.67383-.875.1582-.34766.23926-.75977.23926-1.22656,0-.44922-.06738-.8457-.20117-1.17773-.13574-.33789-.33496-.62305-.58984-.84668h.00002ZM110.61914,23.73553c0,.29199-.04395.54395-.13086.75s-.20117.36816-.35059.49609c-.15332.13184-.33398.22852-.55273.29395-.31152.09375-.62207.11621-1.10449.09277-.0332-.00098-.06445-.00293-.09473-.00391v-3.26172c.04297-.00195.08691-.00391.13184-.00488.12988-.00293.25-.00488.36035-.00488,1.1875,0,1.74121.52148,1.7412,1.64258Z" fill="#5a5b5d"/>
      <path d="M116.10449,24.28534c0,.34668-.08398.62793-.25.83398-.15332.19043-.43945.28711-.85254.28711-.36914,0-.65234-.08301-.84277-.24512-.17773-.15332-.26855-.41016-.26855-.76367v-3.3584h-1.21387v3.46191c0,.6416.20117,1.14453.59766,1.49316.3877.34082.95117.5127,1.67578.5127.4082,0,.76367-.05859,1.05566-.1748.29785-.11621.54883-.27832.74707-.48047s.34473-.44238.43555-.71289c.08594-.25879.12988-.5332.12988-.81641v-3.2832h-1.21387v3.24609h0Z" fill="#5a5b5d"/>
      <path d="M121.98242,25.14178c-.14355.07129-.30664.12793-.4873.16699-.17969.03906-.36426.05957-.54688.05957-.50781,0-.89062-.13281-1.1377-.39453-.25098-.26758-.37793-.67285-.37793-1.20508,0-.24512.03125-.47559.09375-.68652.05762-.19922.14844-.375.26758-.52246.11719-.14355.2627-.25488.44336-.34082.41602-.19336,1.06152-.15332,1.72754.05078l.29102.08887.11719-1.15918-.20117-.05664c-.18848-.05371-.38965-.09277-.59961-.11621-.72559-.08203-1.35352-.01758-1.84375.19141-.35449.15137-.65234.36328-.88477.62988-.22852.2627-.40039.57227-.50977.91895-.10742.33887-.16211.70117-.16211,1.07715,0,.82031.22363,1.47363.66504,1.94238.44531.47266,1.09863.71191,1.94238.71191.27539,0,.53809-.02344.78027-.07129.24023-.04688.4707-.11426.68457-.20117l.17188-.06934-.10645-1.17871-.32715.16406h.00002Z" fill="#5a5b5d"/>
      <polygon points="126.59668 23.11444 124.4668 23.11444 124.4668 21.0578 123.25391 21.0578 123.25391 26.43182 124.4668 26.43182 124.4668 24.216 126.59668 24.216 126.59668 26.43182 127.81055 26.43182 127.81055 21.0578 126.59668 21.0578 126.59668 23.11444" fill="#5a5b5d"/>
      <path d="M130.8916,22.74823c-.08203.15039-.16211.30762-.24023.4707-.06543-.13574-.13184-.26953-.20117-.40234l-.9248-1.76855h-1.35645l1.85645,3.4873v1.89648h1.21387v-1.90527l1.88867-3.47852h-1.30957l-.92676,1.7002Z" fill="#5a5b5d"/>
      <path d="M137.66113,20.97284c-.35938,0-.70605.06445-1.03027.19141-.3252.12793-.61328.31641-.85547.55859-.24121.24121-.43652.53906-.58105.88379-.14258.3457-.21484.74316-.21484,1.18066,0,.38086.04883.7373.14648,1.05859.09961.33008.25488.62402.45996.87207.21094.25195.48047.4502.80371.58691.31738.13379.69434.20215,1.12207.20215.375,0,.72852-.0625,1.0498-.18457.32715-.12402.61719-.30859.86328-.5498.24219-.23828.43652-.53711.57812-.8877.13965-.34863.20996-.74609.20996-1.18262,0-.86328-.22852-1.54102-.67969-2.01367-.4541-.47461-1.08398-.71582-1.87207-.71581ZM138.95215,23.77362c0,.27539-.03809.51855-.11133.72363-.07422.20312-.1709.36621-.29492.49805-.12207.12988-.26758.22754-.43066.29199-.3916.15039-.89258.12305-1.17676-.02539-.16406-.08691-.29395-.19922-.39746-.34277-.10547-.14746-.18164-.32422-.22754-.52344-.04883-.21289-.07324-.44434-.07324-.68848,0-.27734.03906-.51953.11426-.7207.07715-.20215.17871-.37305.30273-.50879.12207-.13184.26465-.2334.4248-.30078.16504-.06934.33398-.10254.51367-.10254.42773,0,.75195.13379.98926.40723.24414.28223.36719.7168.36719,1.29199Z" fill="#5a5b5d"/>
      <polygon points="141.09375 26.43182 142.30762 26.43182 142.30762 24.24432 144.12988 24.24432 144.12988 23.1994 142.30762 23.1994 142.30762 22.09296 144.2334 22.09296 144.2334 21.04803 141.09375 21.04803 141.09375 26.43182" fill="#5a5b5d"/>
      <polygon points="148.35938 21.04803 147.14648 21.04803 147.14648 26.43182 150.17285 26.43182 150.17285 25.33124 148.35938 25.33124 148.35938 21.04803" fill="#5a5b5d"/>
      <path d="M154.19043,24.28534c0,.34668-.08398.62793-.25.83398-.15332.19043-.43945.28711-.85254.28711-.36914,0-.65234-.08301-.84277-.24512-.17773-.15332-.26855-.41016-.26855-.76367v-3.3584h-1.21387v3.46191c0,.6416.20117,1.14453.59766,1.49414.38867.33984.95215.51172,1.67578.51172.4082,0,.76367-.05859,1.05566-.1748.29785-.11621.54883-.27832.74707-.48047s.34473-.44238.43555-.71289c.08594-.25879.12988-.5332.12988-.81641v-3.2832h-1.21387v3.2461Z" fill="#5a5b5d"/>
      <polygon points="161.43066 21.04803 159.96777 21.04803 158.70801 22.78436 157.48242 21.04803 155.94629 21.04803 157.94141 23.7453 155.85645 26.43182 157.37793 26.43182 158.65723 24.64862 159.92871 26.43182 161.52148 26.43182 159.44141 23.71014 161.43066 21.04803" fill="#5a5b5d"/>
      <polygon points="162.03418 26.43182 165.19238 26.43182 165.19238 25.35956 163.24805 25.35956 163.24805 24.18768 165.10742 24.18768 165.10742 23.14276 163.24805 23.14276 163.24805 22.09296 165.19238 22.09296 165.19238 21.04803 162.03418 21.04803 162.03418 26.43182" fill="#5a5b5d"/>
      <path d="M170.50488,21.04803l-1.1875,3.35547c-.00879.02734-.01855.05469-.02734.08203-.01367-.04102-.02832-.08105-.04395-.12207l-1.1377-3.31543h-1.27637l-.80762,5.38379h1.22363l.39453-3.05371c.00098-.00977.00293-.01953.00391-.03027l1.05273,3.08398h1.13672l1.08008-3.12109c.00195.0166.00391.03418.00684.05176l.43457,3.06934h1.25684l-.78711-5.38379s-1.32227,0-1.32227,0Z" fill="#5a5b5d"/>
      <path d="M176.8877,23.54999c.09863-.07617.18555-.16211.25977-.25586.18848-.23828.28418-.52148.28418-.84082,0-.42578-.1582-.77539-.46875-1.04004-.30273-.25781-.76855-.38379-1.4248-.38379-.32715,0-.62305.00293-.88379.00977-.25781.00586-.48047.00879-.66602.00879h-.25v5.37695l.24316.00684c.26465.00684.51367.01172.74609.01465s.42773.00488.58496.00488c.43457,0,.7998-.05664,1.08789-.16797.29004-.11426.52246-.26074.68945-.43555.17188-.17969.29102-.37598.35449-.58301.06152-.20117.09082-.37988.09082-.54785,0-.32617-.09863-.61621-.29395-.86328-.09375-.12012-.21289-.22168-.35352-.30371ZM174.95215,24.15936h.20996c.18164,0,.35156.01172.50781.03418.1416.02148.26367.05859.3623.11035.08691.04492.15332.10254.19824.17285.04102.0625.0625.15137.0625.26367,0,.19727-.06445.34863-.20312.47266-.14355.12793-.3916.19336-.73926.19336-.14258,0-.26465-.00488-.36328-.0127l-.03516-.00293s0-1.23145,0-1.23144ZM175.14355,23.16132h-.19141v-1.08594c.02734-.00098.05469-.00098.08301-.00098h.35254c.44531,0,.60547.08691.66113.13867.0957.08887.14062.19727.14062.33984,0,.20703-.06836.34082-.22363.43555-.18652.11426-.46289.17285-.82227.17286Z" fill="#5a5b5d"/>
      <path d="M180.80762,20.97284c-.35938,0-.70605.06445-1.03125.19141-.32617.12891-.61426.31738-.85449.55859-.24023.23926-.43555.53711-.58008.88379-.14355.34473-.2168.74219-.2168,1.18066,0,.37891.0498.73438.14746,1.05762.09766.3291.25293.62305.45996.87305.21094.25195.48047.4502.80371.58691.31738.13379.69434.20215,1.12109.20215.375,0,.72852-.0625,1.05176-.18555.32812-.12402.61816-.30859.86035-.54785.24414-.23926.43848-.53809.57812-.8877.13965-.34668.21094-.74414.21094-1.18359,0-.86426-.22852-1.54199-.67969-2.01367-.4541-.47461-1.08398-.71582-1.87109-.71582ZM182.09766,23.77362c0,.27734-.03809.52051-.1123.72461-.07129.19824-.16992.36523-.29297.49707-.12207.12988-.26758.22754-.43066.29199-.38965.15137-.89258.12305-1.17773-.02539-.16406-.08691-.29395-.19922-.39648-.34277-.10645-.14941-.18262-.3252-.22852-.52441-.04883-.21094-.07324-.44238-.07324-.6875,0-.27539.03906-.51855.11621-.72168.07422-.2002.17578-.37012.30078-.50684.12305-.13281.2666-.23438.42578-.30176.16211-.06836.33496-.10254.51367-.10254.42773,0,.75195.13379.98926.40723.24316.28223.36621.7168.36621,1.29199Z" fill="#5a5b5d"/>
      <path d="M187.63086,24.28534c0,.3457-.08398.62695-.25098.83398-.15234.19043-.43848.28711-.85156.28711-.36914,0-.65234-.08203-.84277-.24609-.18164-.1543-.26953-.4043-.26953-.7627v-3.3584h-1.21387v3.46191c0,.64258.20117,1.14453.59863,1.49316.3877.34082.95117.5127,1.67578.5127.4082,0,.76367-.05859,1.05566-.1748.29883-.11621.5498-.27832.74609-.48047.19922-.2041.3457-.44434.43555-.71289.08691-.26074.13086-.53516.13086-.81641v-3.2832h-1.21387v3.24609h0Z" fill="#5a5b5d"/>
      <path d="M192.41016,24.12811c.07422-.01758.14551-.03809.21484-.0625.21973-.0752.41406-.18359.57812-.32227.16895-.1416.30176-.31641.39453-.51855.09375-.20117.14062-.43164.14062-.68652,0-.49707-.18555-.88184-.55078-1.14258-.33887-.24316-.82227-.36621-1.43652-.36621-.28906,0-.54883.00195-.77832.00488-.23145.00293-.4209.00781-.56543.01367l-.24023.00977v5.37402h1.21387v-1.73633l1.37598,1.73633h1.55273l-1.75488-2.12793-.14453-.17578ZM192.49609,22.62225c0,.20215-.0625.34863-.19629.46094-.19922.16602-.5459.1875-.90332.17676h-.01562v-1.18164c.0752-.00293.16797-.00391.27637-.00391.28516,0,.50684.05176.65723.1543.07812.05273.18164.15137.18164.39355Z" fill="#5a5b5d"/>
      <path d="M197.85059,23.45233v1.87012c-.06543.01465-.13477.02832-.20703.04004-.36621.05859-.7793.04199-1.09863-.07715-.19629-.07324-.3584-.1748-.49609-.31055-.13672-.13574-.24512-.30469-.32129-.50488-.08008-.20605-.12012-.44727-.12012-.71582,0-.29102.0459-.54395.13477-.75293.08887-.20703.20898-.38086.35645-.5166.15332-.13965.32422-.24121.52148-.31152.39648-.1416.84863-.13086,1.26855-.04395.2168.04688.43164.11035.6377.19141l.28809.11133.1875-1.15723-.20605-.06445c-.25-.0791-.50293-.13672-.75391-.17285-.69727-.10059-1.41699-.06348-1.97949.16602-.36328.14746-.6748.35059-.92676.60449-.25293.25488-.4502.56055-.58691.90723-.13379.34375-.20117.71777-.20117,1.10938,0,.42578.06738.80859.20117,1.13672.13574.33496.33105.62012.5791.84668.24609.22559.54297.39941.88086.5166.33301.11523.70117.17383,1.0957.17383.32812,0,.64453-.02637.94141-.07812.29297-.05273.58008-.12793.85156-.22363l.16699-.05859v-2.68555h-1.21387v-.00003Z" fill="#5a5b5d"/>
    </g>
  </g>
</svg>