<svg
	xmlns="http://www.w3.org/2000/svg"
	fill="none"
	viewBox="0 0 48 48"
	height="16"
	width="16"
	aria-label="Instagram icon"
>
	<path
		fill="currentColor"
		d="M24 4.32c6.41 0 7.17.02 9.7.14 2.34.11 3.61.5 4.46.83a7.5 7.5 0 0 1 2.78 1.8 7.5 7.5 0 0 1 1.8 2.79c.33.85.73 2.12.84 4.46.12 2.53.14 3.29.14 9.7s-.02 7.17-.14 9.7c-.11 2.34-.5 3.61-.83 4.46a7.5 7.5 0 0 1-1.8 2.78 7.5 7.5 0 0 1-2.79 1.8c-.85.33-2.12.73-4.46.84-2.53.12-3.29.14-9.7.14s-7.17-.02-9.7-.14c-2.34-.11-3.61-.5-4.46-.83a7.5 7.5 0 0 1-2.78-1.8 7.5 7.5 0 0 1-1.8-2.79c-.33-.85-.73-2.12-.84-4.46-.12-2.53-.14-3.29-.14-9.7s.02-7.17.14-9.7c.11-2.34.5-3.61.83-4.46a7.5 7.5 0 0 1 1.8-2.78 7.5 7.5 0 0 1 2.79-1.8c.85-.33 2.12-.73 4.46-.84 2.53-.12 3.29-.14 9.7-.14zm0-3.84c-6.52 0-7.33.03-9.9.14-2.54.12-4.28.52-5.8 1.11a11.7 11.7 0 0 0-4.23 2.76 11.7 11.7 0 0 0-2.76 4.23c-.59 1.52-.99 3.26-1.11 5.8C.09 17.15.06 17.96.06 24.48s.03 7.33.14 9.9c.12 2.54.52 4.28 1.11 5.8a11.7 11.7 0 0 0 2.76 4.23 11.7 11.7 0 0 0 4.23 2.76c1.52.59 3.26.99 5.8 1.11 2.57.11 3.38.14 9.9.14s7.33-.03 9.9-.14c2.54-.12 4.28-.52 5.8-1.11a11.7 11.7 0 0 0 4.23-2.76 11.7 11.7 0 0 0 2.76-4.23c.59-1.52.99-3.26 1.11-5.8.11-2.57.14-3.38.14-9.9s-.03-7.33-.14-9.9c-.12-2.54-.52-4.28-1.11-5.8a11.7 11.7 0 0 0-2.76-4.23 11.7 11.7 0 0 0-4.23-2.76c-1.52-.59-3.26-.99-5.8-1.11C31.33.51 30.52.48 24 .48zM24 12a12 12 0 1 0 0 24 12 12 0 0 0 0-24zm0 19.8a7.8 7.8 0 1 1 0-15.6 7.8 7.8 0 0 1 0 15.6zM39.69 11.5a2.8 2.8 0 1 1-5.6 0 2.8 2.8 0 0 1 5.6 0z"
	/>
</svg>