<svg xmlns="http://www.w3.org/2000/svg" fill="none" viewBox="0 0 24 24" stroke-width="1.5" stroke="currentColor">
  <path stroke-linecap="round" stroke-linejoin="round" d="M8.25 3v1.5M4.5 8.25H3m18 0h-1.5M4.5 12H3m18 0h-1.5m-15 3.75H3m18 0h-1.5M8.25 19.5V21M12 3v1.5m3.75-1.5v1.5m-7.5 15V21m3.75-1.5V21m3.75-1.5V21M6.75 6.75h10.5a2.25 2.25 0 0 1 2.25 2.25v7.5a2.25 2.25 0 0 1-2.25 2.25H6.75a2.25 2.25 0 0 1-2.25-2.25V9a2.25 2.25 0 0 1 2.25-2.25ZM9.75 11.25a.75.75 0 1 1-1.5 0 .75.75 0 0 1 1.5 0Zm5.25 0a.75.75 0 1 1-1.5 0 .75.75 0 0 1 1.5 0Z" />
</svg>